<svg aria-hidden="true" style="position:absolute;width:0;height:0;overflow:hidden" xmlns="http://www.w3.org/2000/svg">
  <defs>
    <symbol id="hero" viewBox="0 0 32 32">
      <path fill="none" stroke="#fff" style="stroke:var(--color1, #fff)" stroke-miterlimit="10" stroke-width="1.7" d="M16 0v29.6M5 19.5l11 10.8 11-10.8"/>
    </symbol>
    <symbol id="area-1" viewBox="0 0 32 32">
      <path fill="none" stroke="#70cf29" style="stroke:var(--color2, #70cf29)" stroke-miterlimit="10" stroke-width=".4" d="M26.2 4.1a15.6 15.6 0 0 0-22 22"/>
      <path fill="none" stroke="#3fa9f5" style="stroke:var(--color3, #3fa9f5)" stroke-miterlimit="10" stroke-width=".4" d="M5.7 27.8a15.6 15.6 0 0 0 22-22"/>
      <path fill="#3fa9f5" style="fill:var(--color3, #3fa9f5)" d="M19.3 15a3.3 3.3 0 1 0 0-6.7 3.3 3.3 0 0 0 0 6.6zm0-6a2.6 2.6 0 1 1 0 5.2 2.6 2.6 0 0 1 0-5.1zM19.3 16.3a5.6 5.6 0 0 0-5.5 5.7v.3h11.1V22c0-3.2-2.4-5.7-5.6-5.7zm-4.9 5.3a5 5 0 0 1 9.8 0h-9.8zM11.3 16.4a2.7 2.7 0 1 0 0-5.4 2.7 2.7 0 0 0 0 5.4zm0-4.7a2 2 0 1 1 0 4 2 2 0 0 1 0-4zM6.7 22v.3h5.6v-.7H7.5c.1-2 1.7-3.5 3.8-3.5.7 0 1.3.1 1.9.4l.4-.6c-.7-.4-1.4-.6-2.3-.6-2.6 0-4.6 2-4.6 4.7z"/>
    </symbol>
    <symbol id="area-2" viewBox="0 0 32 32">
      <path fill="none" stroke="#70cf29" style="stroke:var(--color2, #70cf29)" stroke-miterlimit="10" stroke-width=".4" d="M26.2 4.1a15.6 15.6 0 0 0-22 22"/>
      <path fill="none" stroke="#3fa9f5" style="stroke:var(--color3, #3fa9f5)" stroke-miterlimit="10" stroke-width=".4" d="M5.7 27.8a15.6 15.6 0 0 0 22-22"/>
      <path fill="#3fa9f5" style="fill:var(--color3, #3fa9f5)" d="M16.4 14.1h4.4l3.3-2.9-3.3-2.6h-4.4V7.4h-.8v1.2H9.3V14h6.3V16H12l-3.3 2.9 3.3 2.7h3.7v2.6H12v.7h8.6v-.7h-4.1v-2.6H23V16h-6.7v-1.9zM10 9.3h10.6l2.3 2-2.4 2H10v-4zm12.3 7.4v4.1H12.1l-2.4-2 2.4-2h10.2z"/>
    </symbol>
    <symbol id="area-3" viewBox="0 0 32 32">
      <path fill="none" stroke="#70cf29" style="stroke:var(--color2, #70cf29)" stroke-miterlimit="10" stroke-width=".4" d="M26.2 4.1a15.6 15.6 0 0 0-22 22"/>
      <path fill="none" stroke="#3fa9f5" style="stroke:var(--color3, #3fa9f5)" stroke-miterlimit="10" stroke-width=".4" d="M5.7 27.8a15.6 15.6 0 0 0 22-22"/>
      <path fill="#3fa9f5" style="fill:var(--color3, #3fa9f5)" d="M23.2 9h-14c-1 0-1.8.8-1.8 1.8V20c0 .9.8 1.6 1.7 1.6h1v3.8l4.1-3.8h9c1 0 1.7-.7 1.7-1.6v-9.2c0-1-.8-1.9-1.7-1.9zm1 11c0 .5-.4.8-1 .8H14l-3.1 3v-3H9c-.5 0-1-.3-1-.8v-9.2c0-.6.6-1.1 1-1.1h14.1c.5 0 1 .5 1 1V20z"/>
      <path fill="#3fa9f5" style="fill:var(--color3, #3fa9f5)" d="M16 11.3c-2.3 0-4 1.8-4 4s1.7 4 4 4c2.2 0 4-1.7 4-4s-1.8-4-4-4zm3.2 3.6h-1.5c0-1-.3-2-.6-2.6 1.1.4 2 1.4 2.1 2.6zM16 18.6c-.4 0-1-1-1-3h2c-.1 2-.7 3-1 3zm-1-3.7c0-1.9.7-2.8 1-2.8s.9 1 1 2.8h-2zm-.2-2.6a7 7 0 0 0-.6 2.6h-1.5c.2-1.2 1-2.2 2.1-2.6zm-2.1 3.3h1.5c0 1 .3 2.1.6 2.8-1.1-.4-2-1.5-2.1-2.8zm4.4 2.8a7 7 0 0 0 .6-2.8h1.5c0 1.3-1 2.4-2.1 2.8z"/>
    </symbol>
    <symbol id="area-4" viewBox="0 0 32 32">
      <path fill="none" stroke="#70cf29" style="stroke:var(--color2, #70cf29)" stroke-miterlimit="10" stroke-width=".4" d="M26.2 4.1a15.6 15.6 0 0 0-22 22"/>
      <path fill="none" stroke="#3fa9f5" style="stroke:var(--color3, #3fa9f5)" stroke-miterlimit="10" stroke-width=".4" d="M5.7 27.8a15.6 15.6 0 0 0 22-22"/>
      <path fill="#3fa9f5" style="fill:var(--color3, #3fa9f5)" d="m24.3 15.3-1.8-1.9h-1.1l-1.9-1.9h-6.1v-4h-2.2v4H8.9v1.9H8v1.9h-2l2 7h15.8l2.9-7h-2.3zM12 8.2h.8v3.3h-.8V8.2zm-2.2 4h9.5l1.1 1.2H9.7v-1.1zm-1.1 2h13.6l1 1H8.7v-1zm14.6 7.4H8.5L6.8 16h18.7l-2.3 5.6z"/>
      <path fill="#3fa9f5" style="fill:var(--color3, #3fa9f5)" d="M11.2 17.3a1.5 1.5 0 1 0 0 3 1.5 1.5 0 0 0 0-3zm0 2.2a.7.7 0 1 1 0-1.5.7.7 0 0 1 0 1.5zM16 17.3a1.5 1.5 0 1 0 0 3 1.5 1.5 0 0 0 0-3zm0 2.2a.7.7 0 1 1 0-1.5.7.7 0 0 1 0 1.5zM20.8 17.3a1.5 1.5 0 1 0 0 3 1.5 1.5 0 0 0 0-3zm0 2.2a.7.7 0 1 1 0-1.5.7.7 0 0 1 0 1.5z"/>
    </symbol>
    <symbol id="area-5" viewBox="0 0 32 32">
      <path fill="none" stroke="#70cf29" style="stroke:var(--color2, #70cf29)" stroke-miterlimit="10" stroke-width=".4" d="M26.2 4.1a15.6 15.6 0 0 0-22 22"/>
      <path fill="none" stroke="#3fa9f5" style="stroke:var(--color3, #3fa9f5)" stroke-miterlimit="10" stroke-width=".4" d="M5.7 27.8a15.6 15.6 0 0 0 22-22"/>
      <path fill="#3fa9f5" style="fill:var(--color3, #3fa9f5)" d="M19.6 16.1c.4.3.9.6 1.6.6.7 0 1.1-.3 1.5-.6.4-.2.7-.5 1.1-.5.4 0 .7.3 1 .5.5.3 1 .6 1.6.6V16c-.4 0-.7-.2-1-.5-.5-.3-.9-.6-1.6-.6-.7 0-1.1.3-1.5.6-.4.3-.7.5-1 .5-.6 0-.9-.2-1.2-.5-.3-.2-.7-.5-1.1-.6v-2.3a1.9 1.9 0 1 0-.8 0V15c-.4.1-.8.4-1.1.6-.4.3-.7.5-1.1.5s-.7-.2-1-.5c-.5-.3-1-.6-1.6-.6s-1.1.3-1.5.6c-.4.3-.7.5-1.1.5-.4 0-.8-.2-1.1-.5-.4-.3-.8-.6-1.5-.6s-1.2.3-1.6.6c-.3.3-.6.5-1 .5v.7c.7 0 1.1-.3 1.5-.6.3-.2.6-.5 1-.5.5 0 .8.3 1.2.5.4.3.8.6 1.5.6s1.1-.3 1.5-.6c.4-.2.7-.5 1.1-.5s.7.3 1 .5c.5.3 1 .6 1.6.6s1.1-.3 1.5-.6l.7-.4v1.8c-.4.1-.8.4-1.1.6-.4.3-.7.5-1.1.5s-.7-.2-1-.5c-.5-.3-1-.6-1.6-.6s-1.1.3-1.5.6c-.4.3-.7.5-1.1.5-.4 0-.8-.2-1.1-.5-.4-.3-.8-.6-1.5-.6s-1.2.3-1.6.6c-.3.3-.6.5-1 .5v.7c.7 0 1.1-.3 1.5-.6.3-.2.6-.5 1-.5.5 0 .8.3 1.2.5.4.3.8.6 1.5.6s1.1-.3 1.5-.6c.4-.2.7-.5 1.1-.5s.7.3 1 .5c.5.3 1 .6 1.6.6s1.1-.3 1.5-.6l.7-.4v4.8a2.6 2.6 0 0 1-5.2 0v-1l1.6 1.6.5-.5-2.8-2.9v2.8a3.4 3.4 0 0 0 6.7 0v-4.8c.2 0 .4.2.6.4.4.3.9.6 1.6.6.7 0 1.1-.3 1.5-.6.4-.2.7-.5 1.1-.5.4 0 .7.3 1 .5.5.3 1 .6 1.6.6v-.7c-.4 0-.7-.2-1-.5-.5-.3-.9-.6-1.6-.6-.7 0-1.1.3-1.5.6-.4.3-.7.5-1 .5-.6 0-.9-.2-1.2-.5-.3-.2-.7-.5-1.1-.6v-1.8c.2 0 .4.2.6.4zm-2.1-5.3a1.1 1.1 0 1 1 2.2 0 1.1 1.1 0 0 1-2.2 0z"/>
      <path fill="#3fa9f5" style="fill:var(--color3, #3fa9f5)" d="M19 6h-.8v3h.8V6z"/>
    </symbol>
    <symbol id="area-6" viewBox="0 0 32 32">
      <path fill="none" stroke="#70cf29" style="stroke:var(--color2, #70cf29)" stroke-miterlimit="10" stroke-width=".4" d="M26.2 4.1a15.6 15.6 0 0 0-22 22"/>
      <path fill="none" stroke="#3fa9f5" style="stroke:var(--color3, #3fa9f5)" stroke-miterlimit="10" stroke-width=".4" d="M5.7 27.8a15.6 15.6 0 0 0 22-22"/>
      <path fill="#3fa9f5" style="fill:var(--color3, #3fa9f5)" d="M23.8 10c0-1.4-1.2-2.6-2.6-2.6H10.4A2.6 2.6 0 0 0 7.8 10v12.7H10v1.5h.8v-1.5h10v1.5h.8v-1.5h2.2V10zM18 16.4a2.2 2.2 0 0 0-4.4 0h-5v-6H23v6h-5zm-.8 0h-2.8a1.5 1.5 0 0 1 2.9 0zm-6.8-8.2h10.8c1 0 1.7.6 1.8 1.5H8.6c.2-.9 1-1.5 1.8-1.5zM8.6 22V17H23V22H8.6z"/>
      <path fill="#3fa9f5" style="fill:var(--color3, #3fa9f5)" d="M11.3 17.9a1.7 1.7 0 1 0 0 3.3 1.7 1.7 0 0 0 0-3.3zm0 2.6a1 1 0 1 1 0-1.9 1 1 0 0 1 0 1.9zM20.3 17.9a1.7 1.7 0 1 0 0 3.3 1.7 1.7 0 0 0 0-3.3zm0 2.6a1 1 0 1 1 0-1.9 1 1 0 0 1 0 1.9z"/>
    </symbol>
    <symbol id="area-7" viewBox="0 0 32 32">
      <path fill="none" stroke="#70cf29" style="stroke:var(--color2, #70cf29)" stroke-miterlimit="10" stroke-width=".4" d="M26.2 4.1a15.6 15.6 0 0 0-22 22"/>
      <path fill="none" stroke="#3fa9f5" style="stroke:var(--color3, #3fa9f5)" stroke-miterlimit="10" stroke-width=".4" d="M5.7 27.8a15.6 15.6 0 0 0 22-22"/>
      <path fill="#3fa9f5" style="fill:var(--color3, #3fa9f5)" d="M14.8 14.5a3.5 3.5 0 1 0 0-6.9 3.5 3.5 0 0 0 0 7zm0-6.1a2.7 2.7 0 1 1 0 5.4 2.7 2.7 0 0 1 0-5.4zM16 21.6H9.7a5.1 5.1 0 0 1 5-4.9c1 0 1.9.2 2.6.6l.4-.6c-.9-.5-1.8-.7-3-.7A5.9 5.9 0 0 0 9 22v.3H16v-.7zM25.2 24.6l-2.1-2.7c.2-.4.3-.9.3-1.4a3 3 0 1 0-5.5 1.4l-2.2 2.7v.4c0 .2.2.2.3.2h1.5l.5 1.3.3.2c.2 0 .3 0 .4-.2l1.6-3H20.6l1.7 3c0 .2.1.2.3.2.2 0 .3 0 .3-.2l.5-1.3H25c.2 0 .3-.1.3-.2v-.4zm-6.8.9-.3-.9-.4-.2h-.9l1.5-1.9c.4.4.8.7 1.3.8l-1.2 2.2zm-.2-5a2.2 2.2 0 1 1 4.5 0 2.2 2.2 0 0 1-4.5 0zm5 3.9-.4.2-.3.9-1.1-2.2a3 3 0 0 0 1.2-.8l1.5 2-.9-.1z"/>
    </symbol>
    <symbol id="header-2" viewBox="0 0 32 32">
      <path fill="#fff" style="fill:var(--color1, #fff)" opacity=".8" d="M16 0a16 16 0 1 0 0 32 16 16 0 0 0 0-32zm9.6 9.4-9 9c-.2.2-.8.2-1-.1l-9-9h19zM6 10l6 6-6 6V10zm.6 12.8h-.1l6.2-6.2 2.2 2.3c.3.3.8.5 1.2.5.4 0 .9-.2 1.2-.5l2.2-2.2 6 6.1h-19zm19.6-.6L20 16l6-6.1v12.2z"/>
    </symbol>
    <symbol id="header-1" viewBox="0 0 32 32">
      <path fill="#fff" style="fill:var(--color1, #fff)" opacity=".8" d="M16 0a16 16 0 1 0 0 32 16 16 0 0 0 0-32zm4.3 24.2c-2.1 0-6.3-2.5-8.2-4.7-2-2.2-3.9-6.6-3.8-8.7 0 0 2.3-3.1 3.4-3 1 0 4 3.4 3 4.4-1.2 1-2.3 1-2.3 2s1 2.2 2 3.3c1 1.1 2 2.2 3 2.3 1 0 1.1-1 2.2-2s4.1 2.4 4 3.5c0 1-3.3 3-3.3 3z"/>
    </symbol>
    <symbol id="arrow-left" viewBox="0 0 32 32">
      <path fill="none" stroke="#0061d9" style="stroke:var(--color4, #0061d9)" stroke-miterlimit="10" stroke-width="4.6" d="M24 29.7 10.3 16 24 2.3"/>
    </symbol>
    <symbol id="arrow-right" viewBox="0 0 32 32">
      <path fill="none" stroke="#0061d9" style="stroke:var(--color4, #0061d9)" stroke-miterlimit="10" stroke-width="4.6" d="M8.5 2.3 22.2 16 8.5 29.7"/>
    </symbol>
    <symbol id="footer" viewBox="0 0 32 32">
      <path fill="#fff" style="fill:var(--color1, #fff)" d="M28.2 22.6h.6v-2l1.8 1.8a2.9 2.9 0 0 0 .3.2h.1a.6.6 0 0 0 .4 0 .6.6 0 0 0 .3-.4v-2.1h-.5v2l-1.9-1.9a.8.8 0 0 0-.5-.2h-.2l-.2.2-.2.2v2.2zm-9-4.3h2v-3.8l7 3.5c.8.4 2 .5 2.6 0 .8-.4 1-1.2 1-2V9.4H7.2a4 4 0 0 0-1.3.2c-.3.1-.7.3-1 .6L4 11l-.3 1.2c0 .4.1.7.3 1 .1.4.4.7.6 1l1 .5c.4.2.8.2 1.1.2h8.7v1.3H2.4V9.4H0v9h14.7a3.2 3.2 0 0 0 2-.8l.8-.9.2-1c0-.5 0-.8-.2-1.2a2.8 2.8 0 0 0-1.6-1.5l-1.2-.2H6v-1.3h23.6v4.8l-7-3.5c-1.7-.8-3.5-.5-3.5 1.6v4zM3 22H.6v-1.4H3V22zm-3 .6h2.8a1 1 0 0 0 .6-.2l.2-.3v-1.3a.7.7 0 0 0-.2-.5L3 20a1 1 0 0 0-.3 0H0v2.5zm9.8 0V22h-3v-.4h3V21h-3v-.4h3V20H7a1 1 0 0 0-.4 0l-.3.3a.8.8 0 0 0-.2.5v1a.7.7 0 0 0 .2.6l.3.2h3.1zm6.3-2v-.5h-2.9a1.1 1.1 0 0 0-.6.2l-.2.2-.1.3v.4l.3.2.2.2h2.8v.4h-3.1v.6h3a.9.9 0 0 0 .5-.2l.2-.3v-.3a.8.8 0 0 0-.2-.5l-.3-.2H13v-.5h3zm3.4-.6h-.7v2.6h.7V20zm4.4 1v.6H25v.4h-2.4v-1.4h3V20H23c-.2 0-.5 0-.7.2-.2.2-.2.3-.2.5v1.4l.3.3.3.1H25l.3-.1.3-.2V21H24z"/>
    </symbol>
  </defs>
</svg>
